<mxfile host="app.diagrams.net" modified="2022-03-09T10:33:42.423Z" agent="5.0 (Windows NT 10.0; Win64; x64) AppleWebKit/537.36 (KHTML, like Gecko) Chrome/98.0.4758.102 Safari/537.36" etag="U8gLhnVFNBR8UHo_ywe3" version="16.6.8" type="github">
  <diagram id="C3n2u9p28RJBCAid8Xp9" name="Page-1">
    <mxGraphModel dx="1865" dy="546" grid="1" gridSize="10" guides="1" tooltips="1" connect="1" arrows="1" fold="1" page="1" pageScale="1" pageWidth="827" pageHeight="1169" math="0" shadow="0">
      <root>
        <mxCell id="0" />
        <mxCell id="1" parent="0" />
        <mxCell id="xMmDxgA52zjlr51yU6Mr-23" value="DAX" style="rounded=1;whiteSpace=wrap;html=1;verticalAlign=top;" vertex="1" parent="1">
          <mxGeometry x="300" y="130" width="160" height="420" as="geometry" />
        </mxCell>
        <mxCell id="xMmDxgA52zjlr51yU6Mr-22" value="Future Farming" style="rounded=1;whiteSpace=wrap;html=1;verticalAlign=top;" vertex="1" parent="1">
          <mxGeometry x="60" y="50" width="160" height="500" as="geometry" />
        </mxCell>
        <mxCell id="xMmDxgA52zjlr51yU6Mr-20" value="Managed Gateway" style="rounded=1;whiteSpace=wrap;html=1;verticalAlign=top;" vertex="1" parent="1">
          <mxGeometry x="-180" y="210" width="160" height="340" as="geometry" />
        </mxCell>
        <mxCell id="xMmDxgA52zjlr51yU6Mr-1" value="Sandpit&lt;br&gt;DefraDev" style="rounded=1;whiteSpace=wrap;html=1;" vertex="1" parent="1">
          <mxGeometry x="80" y="80" width="120" height="60" as="geometry" />
        </mxCell>
        <mxCell id="xMmDxgA52zjlr51yU6Mr-10" style="edgeStyle=orthogonalEdgeStyle;rounded=0;orthogonalLoop=1;jettySize=auto;html=1;" edge="1" parent="1" source="xMmDxgA52zjlr51yU6Mr-2" target="xMmDxgA52zjlr51yU6Mr-7">
          <mxGeometry relative="1" as="geometry" />
        </mxCell>
        <mxCell id="xMmDxgA52zjlr51yU6Mr-2" value="Development&lt;br&gt;DefraDev" style="rounded=1;whiteSpace=wrap;html=1;" vertex="1" parent="1">
          <mxGeometry x="80" y="160" width="120" height="60" as="geometry" />
        </mxCell>
        <mxCell id="xMmDxgA52zjlr51yU6Mr-11" style="edgeStyle=orthogonalEdgeStyle;rounded=0;orthogonalLoop=1;jettySize=auto;html=1;entryX=0;entryY=0.5;entryDx=0;entryDy=0;" edge="1" parent="1" source="xMmDxgA52zjlr51yU6Mr-3" target="xMmDxgA52zjlr51yU6Mr-8">
          <mxGeometry relative="1" as="geometry" />
        </mxCell>
        <mxCell id="xMmDxgA52zjlr51yU6Mr-3" value="Test&lt;br&gt;DefraDev" style="rounded=1;whiteSpace=wrap;html=1;" vertex="1" parent="1">
          <mxGeometry x="80" y="240" width="120" height="60" as="geometry" />
        </mxCell>
        <mxCell id="xMmDxgA52zjlr51yU6Mr-4" value="Train&lt;br&gt;DefraPreProd" style="rounded=1;whiteSpace=wrap;html=1;" vertex="1" parent="1">
          <mxGeometry x="80" y="320" width="120" height="60" as="geometry" />
        </mxCell>
        <mxCell id="xMmDxgA52zjlr51yU6Mr-12" style="edgeStyle=orthogonalEdgeStyle;rounded=0;orthogonalLoop=1;jettySize=auto;html=1;entryX=0;entryY=0.5;entryDx=0;entryDy=0;" edge="1" parent="1" source="xMmDxgA52zjlr51yU6Mr-5" target="xMmDxgA52zjlr51yU6Mr-8">
          <mxGeometry relative="1" as="geometry" />
        </mxCell>
        <mxCell id="xMmDxgA52zjlr51yU6Mr-5" value="Pre-Production&lt;br&gt;DefraPreProd" style="rounded=1;whiteSpace=wrap;html=1;" vertex="1" parent="1">
          <mxGeometry x="80" y="400" width="120" height="60" as="geometry" />
        </mxCell>
        <mxCell id="xMmDxgA52zjlr51yU6Mr-13" style="edgeStyle=orthogonalEdgeStyle;rounded=0;orthogonalLoop=1;jettySize=auto;html=1;" edge="1" parent="1" source="xMmDxgA52zjlr51yU6Mr-6" target="xMmDxgA52zjlr51yU6Mr-9">
          <mxGeometry relative="1" as="geometry" />
        </mxCell>
        <mxCell id="xMmDxgA52zjlr51yU6Mr-6" value="Production&lt;br&gt;DefraProduction" style="rounded=1;whiteSpace=wrap;html=1;" vertex="1" parent="1">
          <mxGeometry x="80" y="480" width="120" height="60" as="geometry" />
        </mxCell>
        <mxCell id="xMmDxgA52zjlr51yU6Mr-7" value="Development&lt;br&gt;DefraDev" style="rounded=1;whiteSpace=wrap;html=1;" vertex="1" parent="1">
          <mxGeometry x="320" y="160" width="120" height="60" as="geometry" />
        </mxCell>
        <mxCell id="xMmDxgA52zjlr51yU6Mr-8" value="Pre-Production&lt;br&gt;DefraPreProd" style="rounded=1;whiteSpace=wrap;html=1;" vertex="1" parent="1">
          <mxGeometry x="320" y="310" width="120" height="60" as="geometry" />
        </mxCell>
        <mxCell id="xMmDxgA52zjlr51yU6Mr-9" value="Production&lt;br&gt;DefraProd" style="rounded=1;whiteSpace=wrap;html=1;" vertex="1" parent="1">
          <mxGeometry x="320" y="480" width="120" height="60" as="geometry" />
        </mxCell>
        <mxCell id="xMmDxgA52zjlr51yU6Mr-16" style="edgeStyle=orthogonalEdgeStyle;rounded=0;orthogonalLoop=1;jettySize=auto;html=1;entryX=0;entryY=0.5;entryDx=0;entryDy=0;" edge="1" parent="1" source="xMmDxgA52zjlr51yU6Mr-14" target="xMmDxgA52zjlr51yU6Mr-3">
          <mxGeometry relative="1" as="geometry" />
        </mxCell>
        <mxCell id="xMmDxgA52zjlr51yU6Mr-17" style="edgeStyle=orthogonalEdgeStyle;rounded=0;orthogonalLoop=1;jettySize=auto;html=1;entryX=0;entryY=0.5;entryDx=0;entryDy=0;" edge="1" parent="1" source="xMmDxgA52zjlr51yU6Mr-14" target="xMmDxgA52zjlr51yU6Mr-5">
          <mxGeometry relative="1" as="geometry" />
        </mxCell>
        <mxCell id="xMmDxgA52zjlr51yU6Mr-24" style="edgeStyle=orthogonalEdgeStyle;rounded=0;orthogonalLoop=1;jettySize=auto;html=1;entryX=0;entryY=0.5;entryDx=0;entryDy=0;" edge="1" parent="1" source="xMmDxgA52zjlr51yU6Mr-14" target="xMmDxgA52zjlr51yU6Mr-2">
          <mxGeometry relative="1" as="geometry" />
        </mxCell>
        <mxCell id="xMmDxgA52zjlr51yU6Mr-14" value="Test&lt;br&gt;hgmg-test" style="rounded=1;whiteSpace=wrap;html=1;" vertex="1" parent="1">
          <mxGeometry x="-160" y="240" width="120" height="60" as="geometry" />
        </mxCell>
        <mxCell id="xMmDxgA52zjlr51yU6Mr-19" style="edgeStyle=orthogonalEdgeStyle;rounded=0;orthogonalLoop=1;jettySize=auto;html=1;entryX=0;entryY=0.5;entryDx=0;entryDy=0;" edge="1" parent="1" source="xMmDxgA52zjlr51yU6Mr-18" target="xMmDxgA52zjlr51yU6Mr-6">
          <mxGeometry relative="1" as="geometry" />
        </mxCell>
        <mxCell id="xMmDxgA52zjlr51yU6Mr-18" value="Production&lt;br&gt;hgmg-live" style="rounded=1;whiteSpace=wrap;html=1;" vertex="1" parent="1">
          <mxGeometry x="-160" y="480" width="120" height="60" as="geometry" />
        </mxCell>
        <mxCell id="xMmDxgA52zjlr51yU6Mr-26" value="Should send files to all three environments via script" style="text;html=1;strokeColor=none;fillColor=none;align=center;verticalAlign=middle;whiteSpace=wrap;rounded=0;" vertex="1" parent="1">
          <mxGeometry x="-70" y="120" width="60" height="30" as="geometry" />
        </mxCell>
      </root>
    </mxGraphModel>
  </diagram>
</mxfile>
